<?xml version="1.0" encoding="UTF-8" standalone="no"?>
<!-- Created with Inkscape (http://www.inkscape.org/) -->

<svg
   xmlns:dc="http://purl.org/dc/elements/1.1/"
   xmlns:cc="http://creativecommons.org/ns#"
   xmlns:rdf="http://www.w3.org/1999/02/22-rdf-syntax-ns#"
   xmlns:svg="http://www.w3.org/2000/svg"
   xmlns="http://www.w3.org/2000/svg"
   xmlns:sodipodi="http://sodipodi.sourceforge.net/DTD/sodipodi-0.dtd"
   xmlns:inkscape="http://www.inkscape.org/namespaces/inkscape"
   width="816"
   height="199"
   viewBox="0 0 215.89999 52.652083"
   version="1.1"
   id="svg8"
   inkscape:version="0.92.2pre0 (973e216, 2017-07-25)"
   sodipodi:docname="Konarium.svg">
  <defs
     id="defs2" />
  <sodipodi:namedview
     id="base"
     pagecolor="#ffffff"
     bordercolor="#666666"
     borderopacity="1.0"
     inkscape:pageopacity="0.0"
     inkscape:pageshadow="2"
     inkscape:zoom="0.70710678"
     inkscape:cx="292.6708"
     inkscape:cy="137.77079"
     inkscape:document-units="px"
     inkscape:current-layer="layer1"
     showgrid="false"
     units="px"
     inkscape:window-width="1366"
     inkscape:window-height="740"
     inkscape:window-x="0"
     inkscape:window-y="0"
     inkscape:window-maximized="1" />
  <metadata
     id="metadata5">
    <rdf:RDF>
      <cc:Work
         rdf:about="">
        <dc:format>image/svg+xml</dc:format>
        <dc:type
           rdf:resource="http://purl.org/dc/dcmitype/StillImage" />
        <dc:title></dc:title>
      </cc:Work>
    </rdf:RDF>
  </metadata>
  <g
     inkscape:label="Layer 1"
     inkscape:groupmode="layer"
     id="layer1"
     transform="translate(0,-244.34792)">
    <g
       id="g4546"
       transform="matrix(0.1078849,0,0,0.1078849,65.391378,161.45874)" />
    <g
       id="g4548"
       transform="matrix(0.1078849,0,0,0.1078849,65.391378,161.45874)" />
    <g
       id="g4550"
       transform="matrix(0.1078849,0,0,0.1078849,65.391378,161.45874)" />
    <g
       id="g4552"
       transform="matrix(0.1078849,0,0,0.1078849,65.391378,161.45874)" />
    <g
       id="g4554"
       transform="matrix(0.1078849,0,0,0.1078849,65.391378,161.45874)" />
    <g
       id="g4556"
       transform="matrix(0.1078849,0,0,0.1078849,65.391378,161.45874)" />
    <g
       id="g4558"
       transform="matrix(0.1078849,0,0,0.1078849,65.391378,161.45874)" />
    <g
       id="g4560"
       transform="matrix(0.1078849,0,0,0.1078849,65.391378,161.45874)" />
    <g
       id="g4562"
       transform="matrix(0.1078849,0,0,0.1078849,65.391378,161.45874)" />
    <g
       id="g4564"
       transform="matrix(0.1078849,0,0,0.1078849,65.391378,161.45874)" />
    <g
       id="g4566"
       transform="matrix(0.1078849,0,0,0.1078849,65.391378,161.45874)" />
    <g
       id="g4568"
       transform="matrix(0.1078849,0,0,0.1078849,65.391378,161.45874)" />
    <g
       id="g4570"
       transform="matrix(0.1078849,0,0,0.1078849,65.391378,161.45874)" />
    <g
       id="g4572"
       transform="matrix(0.1078849,0,0,0.1078849,65.391378,161.45874)" />
    <g
       id="g4574"
       transform="matrix(0.1078849,0,0,0.1078849,65.391378,161.45874)" />
    <g
       id="g4674"
       transform="translate(-55.945011,70.751086)">
      <path
         sodipodi:nodetypes="cccc"
         inkscape:connector-curvature="0"
         id="rect4642"
         d="m 245.54802,178.42791 5.96939,17.00553 -21.3451,1.72479 z"
         style="opacity:1;fill:#ffd119;fill-opacity:1;stroke:none;stroke-width:2.11666656;stroke-linecap:butt;stroke-linejoin:round;stroke-miterlimit:4;stroke-dasharray:none;stroke-opacity:1;paint-order:normal" />
      <path
         sodipodi:nodetypes="cccc"
         inkscape:connector-curvature="0"
         id="rect4639"
         d="m 249.34687,205.96838 2.17054,-10.53494 -21.3451,1.72479 z"
         style="opacity:1;fill:#ff00ee;fill-opacity:1;stroke:none;stroke-width:2.11666656;stroke-linecap:butt;stroke-linejoin:round;stroke-miterlimit:4;stroke-dasharray:none;stroke-opacity:1;paint-order:normal" />
      <path
         sodipodi:nodetypes="cccc"
         inkscape:connector-curvature="0"
         id="rect4636"
         d="m 245.54802,178.42791 21.41425,-3.54965 -14.99671,19.53504 z"
         style="opacity:1;fill:#b212a8;fill-opacity:1;stroke:none;stroke-width:2.11666656;stroke-linecap:butt;stroke-linejoin:round;stroke-miterlimit:4;stroke-dasharray:none;stroke-opacity:1;paint-order:normal" />
      <path
         sodipodi:nodetypes="cccc"
         inkscape:connector-curvature="0"
         id="rect4633"
         d="m 263.55387,181.76349 5.30814,0.60515 -14.12469,10.14956 z"
         style="opacity:1;fill:#14ccb7;fill-opacity:1;stroke:none;stroke-width:2.11666656;stroke-linecap:butt;stroke-linejoin:round;stroke-miterlimit:4;stroke-dasharray:none;stroke-opacity:1;paint-order:normal" />
      <path
         sodipodi:nodetypes="ccccc"
         inkscape:connector-curvature="0"
         id="rect4630"
         d="m 251.92656,198.75963 0.82762,0.79375 1.15755,14.05485 -4.56486,-7.63985 z"
         style="opacity:1;fill:#14ccb7;fill-opacity:1;stroke:none;stroke-width:2.11666656;stroke-linecap:butt;stroke-linejoin:round;stroke-miterlimit:4;stroke-dasharray:none;stroke-opacity:1;paint-order:normal" />
      <path
         sodipodi:nodetypes="cccccc"
         inkscape:connector-curvature="0"
         id="rect4626"
         d="m 130.43455,272.79152 -10.23796,4.45087 1.31386,-11.60968 -5.28111,-3.9955 5.61459,0.11251 z"
         style="opacity:1;fill:#14ccb7;fill-opacity:1;stroke:none;stroke-width:2.11666656;stroke-linecap:butt;stroke-linejoin:round;stroke-miterlimit:4;stroke-dasharray:none;stroke-opacity:1;paint-order:normal"
         transform="rotate(-26.06743)" />
      <path
         sodipodi:nodetypes="cccccccccccccccccccccccccccccccccccccccc"
         style="fill:#282121;fill-opacity:1;stroke-width:0.1078849"
         id="path4544"
         d="m 244.56869,177.45783 24.98188,-3.66042 -4.90485,6.97787 7.0533,0.6712 -18.90968,14.31207 c 0,0 2.67919,22.59445 2.69115,22.8755 -0.0503,-0.0619 -6.74622,-12.2573 -6.74622,-12.2573 l -19.77633,-8.63502 c 0,0 -2.73975,-8.16676 -3.89,-11.89489 l -8.48109,-0.86672 7.64373,-5.06279 c 0,0 8.85993,4.55341 12.80824,6.68401 m -11.3716,-4.23166 4.13091,13.08136 6.19637,-7.57341 z m 40.3194,-6.48818 -19.85395,2.87382 6.01998,15.04994 z m -34.68533,20.28784 19.45544,-1.49658 -5.98632,-14.96569 z m 17.47327,8.4598 2.0853,-8.34123 -18.07267,1.3902 z m 1.41091,1.02868 3.18656,5.92612 -1.64391,-12.09671 z m 6.12345,-14.45723 10.70924,-8.2992 -3.66479,-0.50647 z m -32.46733,-9.23807 -3.43925,1.98581 4.15496,0.28063 z"
         inkscape:connector-curvature="0" />
      <path
         style="opacity:1;fill:#ff00ee;fill-opacity:1;stroke:none;stroke-width:1.93569744;stroke-linecap:butt;stroke-linejoin:round;stroke-miterlimit:4;stroke-dasharray:none;stroke-opacity:1;paint-order:normal"
         d="m 102.47274,215.87485 a 9.6572914,9.6572914 0 0 1 -9.657287,9.65729 9.6572914,9.6572914 0 0 1 -9.657292,-9.65729 9.6572914,9.6572914 0 0 1 9.657292,-9.65729 9.6572914,9.6572914 0 0 1 9.657287,9.65729 z"
         id="path4622"
         inkscape:connector-curvature="0" />
      <g
         aria-label="Konarium"
         style="font-style:normal;font-variant:normal;font-weight:normal;font-stretch:normal;font-size:49.60147858px;line-height:1.25;font-family:'Aller Light';-inkscape-font-specification:'Aller Light, ';letter-spacing:0px;word-spacing:0px;fill:#282121;fill-opacity:1;stroke:none;stroke-width:0.7750231"
         id="text3707">
        <path
           d="m 77.667641,225.60193 q -3.720111,-4.71214 -7.142613,-9.12667 -3.422502,-4.46414 -7.142613,-9.22588 -0.892827,0.89283 -1.785653,1.73605 -0.892827,0.84323 -1.835255,1.68645 0,3.86892 0,7.48983 0.0496,3.5713 0.0496,7.44022 h -3.72011 v -35.41546 h 3.72011 v 14.88045 q 0,0.39681 -0.0496,0.79362 -0.0496,0.39681 -0.0992,0.84323 0.248007,-0.34721 0.446413,-0.59522 0.248008,-0.24801 0.496015,-0.59522 3.968118,-3.72011 7.787432,-7.63863 3.819314,-3.91851 7.787432,-7.68823 h 4.36493 q -3.620907,3.67051 -7.241815,7.39062 -3.620908,3.67051 -7.291418,7.34102 4.166524,5.30736 7.985838,10.36671 3.819314,5.00975 7.936237,10.31711 z"
           style="font-style:normal;font-variant:normal;font-weight:normal;font-stretch:normal;font-family:'Josefin Sans';-inkscape-font-specification:'Josefin Sans';fill:#282121;fill-opacity:1;stroke-width:0.7750231"
           id="path4677"
           inkscape:connector-curvature="0" />
        <path
           d="m 82.513861,215.68163 q 0,-2.13286 0.793623,-4.01772 0.843225,-1.93445 2.232067,-3.3233 1.438443,-1.43844 3.323299,-2.23206 1.934458,-0.84323 4.116923,-0.84323 2.182465,0 4.067321,0.84323 1.934457,0.79362 3.323296,2.23206 1.38884,1.38885 2.18247,3.3233 0.79362,1.88486 0.79362,4.01772 0,2.13287 -0.79362,4.01772 -0.79363,1.88486 -2.23207,3.2737 -1.38884,1.38884 -3.273696,2.23207 -1.884856,0.79362 -4.116923,0.79362 -2.182465,0 -4.067321,-0.74402 -1.884856,-0.79363 -3.323299,-2.18247 -1.388842,-1.38884 -2.232067,-3.27369 -0.793623,-1.88486 -0.793623,-4.11693 z m 2.728081,0 q 0,1.58725 0.595218,2.97609 0.595217,1.38884 1.636848,2.43047 1.041631,1.04164 2.430473,1.63685 1.388841,0.59522 2.976089,0.59522 1.587247,0 2.976088,-0.59522 1.438443,-0.59521 2.480074,-1.63685 1.041631,-1.04163 1.636849,-2.43047 0.595219,-1.38884 0.595219,-2.97609 0,-1.58724 -0.595219,-2.97609 -0.595218,-1.43844 -1.636849,-2.48007 -1.041631,-1.04163 -2.480074,-1.63685 -1.388841,-0.59522 -2.976088,-0.59522 -1.587248,0 -2.976089,0.59522 -1.388842,0.59522 -2.430473,1.63685 -1.041631,1.04163 -1.636848,2.48007 -0.595218,1.38885 -0.595218,2.97609 z"
           style="font-style:normal;font-variant:normal;font-weight:normal;font-stretch:normal;font-family:'Josefin Sans';-inkscape-font-specification:'Josefin Sans';fill:#282121;fill-opacity:1;stroke-width:0.7750231"
           id="path4679"
           inkscape:connector-curvature="0" />
        <path
           d="m 108.70577,205.76134 h 2.33127 l 0.248,5.10895 q 1.09124,-2.48007 3.2241,-4.01772 2.13286,-1.53765 5.10895,-1.53765 2.92649,0 4.61294,1.63685 1.73605,1.63685 1.83525,4.31533 v 14.33483 h -2.72808 v -13.3924 q -0.0992,-1.68645 -1.19043,-2.87689 -1.09124,-1.19043 -3.2737,-1.28963 -1.58725,0 -2.92649,0.54561 -1.33924,0.49602 -2.38087,1.43844 -0.99203,0.94243 -1.58725,2.23207 -0.54561,1.28964 -0.54561,2.82729 v 10.51551 h -2.72808 z"
           style="font-style:normal;font-variant:normal;font-weight:normal;font-stretch:normal;font-family:'Josefin Sans';-inkscape-font-specification:'Josefin Sans';fill:#282121;fill-opacity:1;stroke-width:0.7750231"
           id="path4681"
           inkscape:connector-curvature="0" />
        <path
           d="m 131.14656,215.78084 q 0,-2.13287 0.79363,-4.01772 0.84322,-1.93446 2.23206,-3.3729 1.43845,-1.43845 3.3233,-2.23207 1.88486,-0.84323 4.01772,-0.84323 1.48805,0 2.77768,0.39682 1.28964,0.39681 2.28167,1.09123 1.04163,0.64482 1.73605,1.48804 0.69442,0.79363 1.04164,1.58725 l 0.1984,-4.11692 h 2.52968 v 19.84059 h -2.72808 v -2.03366 q 0,-0.54562 0,-1.04163 0.0496,-0.49602 0.0496,-0.94243 -0.34721,0.84322 -1.04163,1.63685 -0.69443,0.74402 -1.73606,1.38884 -0.99203,0.64482 -2.28166,0.99203 -1.28964,0.39681 -2.82729,0.39681 -2.23207,0 -4.16652,-0.79362 -1.88486,-0.84323 -3.2737,-2.23207 -1.33924,-1.38884 -2.13286,-3.2241 -0.79363,-1.88485 -0.79363,-3.96811 z m 2.72808,-0.14881 q 0,1.63685 0.59522,3.02569 0.59522,1.38884 1.63685,2.43047 1.04163,1.04164 2.43047,1.63685 1.43845,0.59522 3.07529,0.59522 1.63685,0 3.02569,-0.59522 1.43845,-0.59521 2.48008,-1.63685 1.04163,-1.04163 1.63685,-2.43047 0.59522,-1.38884 0.59522,-3.02569 0,-1.58725 -0.59522,-2.97609 -0.59522,-1.38884 -1.63685,-2.43047 -1.04163,-1.04163 -2.48008,-1.63685 -1.38884,-0.59522 -3.02569,-0.59522 -1.63684,0 -3.07529,0.59522 -1.38884,0.59522 -2.43047,1.63685 -1.04163,0.99203 -1.63685,2.38087 -0.59522,1.38884 -0.59522,3.02569 z"
           style="font-style:normal;font-variant:normal;font-weight:normal;font-stretch:normal;font-family:'Josefin Sans';-inkscape-font-specification:'Josefin Sans';fill:#282121;fill-opacity:1;stroke-width:0.7750231"
           id="path4683"
           inkscape:connector-curvature="0" />
        <path
           d="m 169.15602,208.73743 q -1.48805,0 -2.87689,0.49601 -1.33924,0.44641 -2.38087,1.28964 -1.04163,0.84322 -1.68645,2.08326 -0.59522,1.19044 -0.59522,2.67848 v 10.31711 h -2.72808 v -19.84059 h 2.33127 l 0.24801,5.10895 q 0.59522,-1.28964 1.53765,-2.28167 0.94242,-1.04163 2.03366,-1.73605 1.14083,-0.74402 2.33127,-1.14083 1.24003,-0.39682 2.33127,-0.39682 z"
           style="font-style:normal;font-variant:normal;font-weight:normal;font-stretch:normal;font-family:'Josefin Sans';-inkscape-font-specification:'Josefin Sans';fill:#282121;fill-opacity:1;stroke-width:0.7750231"
           id="path4685"
           inkscape:connector-curvature="0" />
        <path
           d="m 172.87226,198.56912 q 0,-0.84322 0.59521,-1.38884 0.64482,-0.59522 1.38885,-0.59522 0.74402,0 1.33924,0.59522 0.59521,0.54562 0.59521,1.38884 0,0.89283 -0.59521,1.43845 -0.59522,0.54561 -1.33924,0.54561 -0.74403,0 -1.38885,-0.54561 -0.59521,-0.54562 -0.59521,-1.43845 z m 3.3233,27.03281 h -2.72809 v -19.84059 h 2.72809 z"
           style="font-style:normal;font-variant:normal;font-weight:normal;font-stretch:normal;font-family:'Josefin Sans';-inkscape-font-specification:'Josefin Sans';fill:#282121;fill-opacity:1;stroke-width:0.7750231"
           id="path4687"
           inkscape:connector-curvature="0" />
        <path
           d="m 200.12362,225.84994 h -2.28167 l -0.29761,-5.35696 q -1.04163,2.48007 -3.17449,4.01772 -2.13287,1.53764 -5.15856,1.53764 -2.92648,0 -4.66253,-1.63685 -1.68645,-1.63685 -1.78566,-4.31533 v -14.33482 h 2.72808 v 13.3924 q 0.0992,1.68645 1.19044,2.87688 1.09123,1.19044 3.2737,1.28964 1.53764,0 2.87688,-0.49601 1.38884,-0.54562 2.38087,-1.43845 0.99203,-0.94243 1.58725,-2.23206 0.59522,-1.28964 0.59522,-2.82729 v -10.56511 h 2.72808 z"
           style="font-style:normal;font-variant:normal;font-weight:normal;font-stretch:normal;font-family:'Josefin Sans';-inkscape-font-specification:'Josefin Sans';fill:#282121;fill-opacity:1;stroke-width:0.7750231"
           id="path4689"
           inkscape:connector-curvature="0" />
        <path
           d="m 206.93994,205.76134 h 2.33127 q 0.0496,0.44641 0.0496,1.19043 0.0496,0.69442 0.0992,1.48805 0.0496,0.74402 0.0496,1.43844 0.0496,0.64482 0.0496,0.99203 1.09123,-2.48007 3.07529,-3.96812 2.03366,-1.53764 5.00975,-1.58725 2.77768,0 4.46413,1.48805 1.68645,1.43844 1.98406,3.81931 1.14084,-2.38087 3.07529,-3.81931 1.98406,-1.43844 4.91055,-1.48805 2.97609,0 4.66254,1.63685 1.73605,1.63685 1.83525,4.31533 v 14.33483 H 235.808 v -13.3924 q -0.0992,-1.68645 -1.19043,-2.87689 -1.09123,-1.19043 -3.2737,-1.28963 -1.53765,0 -2.87689,0.54561 -1.28963,0.49602 -2.28166,1.43844 -0.94243,0.89283 -1.48805,2.18247 -0.54561,1.24004 -0.59522,2.72808 v 10.66432 h -2.72808 v -13.3924 q -0.0992,-1.68645 -1.19043,-2.87689 -1.09123,-1.19043 -3.2241,-1.28963 -1.58725,0 -2.92649,0.54561 -1.28963,0.49602 -2.28166,1.43844 -0.99203,0.94243 -1.53765,2.23207 -0.54562,1.28964 -0.54562,2.82729 v 10.51551 h -2.72808 z"
           style="font-style:normal;font-variant:normal;font-weight:normal;font-stretch:normal;font-family:'Josefin Sans';-inkscape-font-specification:'Josefin Sans';fill:#282121;fill-opacity:1;stroke-width:0.7750231"
           id="path4691"
           inkscape:connector-curvature="0" />
      </g>
    </g>
  </g>
</svg>
